<svg xmlns="http://www.w3.org/2000/svg" viewBox="0 0 21.89 18.69"><defs><style>.cls-1,.cls-2,.cls-3{fill:none;stroke:#d1d5db;stroke-width:2px;}.cls-1,.cls-3{stroke-linejoin:round;}.cls-2{stroke-miterlimit:10;}.cls-3{stroke-linecap:round;}</style></defs><g id="Layer_2" data-name="Layer 2"><g id="MOBILE_VIEW" data-name="MOBILE VIEW"><g id="icons"><g id="wateringcan-icon"><path class="cls-1" d="M16.33,5.58h-6A2,2,0,0,0,8.33,7.52V10l-4-2.1L3.6,6.47a.25.25,0,0,0-.4,0L1.09,8.57A.24.24,0,0,0,1.1,9l1.44.71,6,6.88h0a1.94,1.94,0,0,0,1.76,1.13h6a1.94,1.94,0,0,0,1.94-1.94V7.52A1.94,1.94,0,0,0,16.33,5.58Z"/><path class="cls-2" d="M8.33,7.28a6.28,6.28,0,1,1,9.94,5.09"/><line class="cls-3" x1="17.99" y1="8.39" x2="11.25" y2="8.44"/></g></g></g></g></svg>